Coordinates
version=1
nRows=26
nColumns=18
inDegrees=yes

Units are S.I. units (second, meters, Newtons, ...)
Angles are in degrees.

endheader
time	ground_thorax_rot_x	ground_thorax_rot_y	ground_thorax_rot_z	ground_thorax_tx	ground_thorax_ty	ground_thorax_tz	clav_prot	clav_elev	scapula_abduction	scapula_elevation	scapula_upward_rot	scapula_winging	plane_elv	shoulder_elv	axial_rot	elbow_flexion	pro_sup
      6.36000000	      1.54728692	     -4.45025152	     -8.61654743	     -0.00423131	      0.00403036	     -0.00078352	    -25.78261084	     -3.00882453	    -12.99739523	     -5.36075378	     21.62067570	      2.78726317	     38.30256261	     18.38213968	     -1.20203931	      0.00000000	     34.32000000
      6.37000000	      1.38253345	     -4.18199352	     -8.51920415	     -0.00423131	      0.00403036	     -0.00078352	    -25.82799374	     -3.20381214	    -13.30267554	     -5.41380405	     21.19551307	      2.95646939	     36.25952513	     17.88404210	     -0.41301852	      0.00000000	     34.32000000
      6.38000000	      1.45053835	     -4.09913081	     -8.62998207	     -0.00423131	      0.00403036	     -0.00078352	    -25.84375611	     -3.41053816	    -13.43230052	     -5.51527669	     20.95480858	      3.08782727	     34.51816259	     17.75917714	      0.24703248	      0.00000000	     34.32000000
      6.39000000	      1.15785934	     -4.21024305	     -8.47325170	     -0.00423131	      0.00403036	     -0.00078352	    -25.44889019	     -3.79584837	    -13.16565915	     -5.60014115	     20.17192862	      3.43787555	     31.63957024	     17.67616023	      2.60395546	      0.00000000	     34.32000000
      6.40000000	      1.27884666	     -4.28357701	     -8.60741353	     -0.00423131	      0.00403036	     -0.00078352	    -25.46089859	     -3.77380998	    -13.21751527	     -5.57509589	     20.13221058	      3.43875341	     31.58455320	     17.59570632	      2.62071283	      0.00000000	     34.32000000
      6.41000000	      1.55330763	     -3.87676228	     -8.66606901	     -0.00423131	      0.00403036	     -0.00078352	    -25.81138124	     -3.64901501	    -13.75317260	     -5.53798718	     20.28060887	      3.33905355	     30.04631246	     17.37553905	      2.88805510	      0.00000000	     34.32000000
      6.42000000	      1.52896974	     -3.73334845	     -8.62160065	     -0.00423131	      0.00403036	     -0.00078352	    -25.88946836	     -3.61032128	    -14.00555896	     -5.47516613	     20.11255033	      3.36066202	     28.59329179	     17.09898586	      3.17452258	      0.00000000	     34.32000000
      6.43000000	      1.53417176	     -3.68421391	     -8.63298772	     -0.00423131	      0.00403036	     -0.00078352	    -25.92850048	     -3.65338088	    -14.15790663	     -5.47530843	     19.96235869	      3.41028480	     27.16861487	     16.89829389	      3.50471631	      0.00000000	     34.32000000
      6.44000000	      1.61723270	     -3.64911471	     -8.67047898	     -0.00423131	      0.00403036	     -0.00078352	    -25.97109001	     -3.70924999	    -14.30219386	     -5.48904866	     19.82861036	      3.46066460	     25.84511969	     16.71795749	      3.84146223	      0.00000000	     34.32000000
      6.45000000	      1.29296511	     -3.66756659	     -8.58784448	     -0.00423131	      0.00403036	     -0.00078352	    -25.73206799	     -4.12276238	    -14.31916668	     -5.59077997	     18.99700983	      3.82743842	     23.19795947	     16.62047137	      5.65653738	      0.00000000	     34.32000000
      6.46000000	      1.44901664	     -3.81317596	     -8.70825735	     -0.00423131	      0.00403036	     -0.00078352	    -25.72833776	     -4.12398762	    -14.35288029	     -5.57637719	     18.93326528	      3.84327703	     23.15751644	     16.49105865	      5.68295940	      0.00000000	     34.32000000
      6.47000000	      1.32111079	     -3.70472525	     -8.72207890	     -0.00423131	      0.00403036	     -0.00078352	    -25.77949683	     -4.26004688	    -14.39251068	     -5.68701537	     18.95285906	      3.88668088	     20.67429478	     15.77406823	      7.13213191	      0.00000000	     34.32000000
      6.48000000	      1.36972867	     -3.81153639	     -8.84326386	     -0.00423131	      0.00403036	     -0.00078352	    -25.76717553	     -4.23568475	    -14.40969039	     -5.65614380	     18.90298519	      3.89016598	     20.64052148	     15.71533743	      7.16433564	      0.00000000	     34.32000000
      6.49000000	      1.30616116	     -3.92288271	     -8.43316617	     -0.00423131	      0.00403036	     -0.00078352	    -25.40346212	     -4.02441190	    -13.88516771	     -5.45727775	     18.83629581	      3.84596029	     16.84623773	     14.28475726	     22.47660205	      0.00000000	     34.32000000
      6.50000000	      1.47372324	     -3.75437422	     -8.55941217	     -0.00423131	      0.00403036	     -0.00078352	    -25.63072316	     -4.02469535	    -14.28990041	     -5.46594397	     18.81036770	      3.84145664	     16.00186723	     14.62286104	     19.63602903	      0.00000000	     34.32000000
      6.51000000	      1.31894042	     -3.92581237	     -8.42601546	     -0.00423131	      0.00403036	     -0.00078352	    -25.32785118	     -4.20355326	    -13.88902656	     -5.52070418	     18.55337620	      3.98350640	     13.12867844	     14.40009036	     23.21313518	      0.00000000	     34.32000000
      6.52000000	      1.44612486	     -3.76871437	     -8.54785150	     -0.00423131	      0.00403036	     -0.00078352	    -25.57877749	     -4.20351162	    -14.30018608	     -5.54338956	     18.58133166	      3.96567116	     12.60805186	     14.52776935	     20.64772702	      0.00000000	     34.32000000
      6.53000000	      1.46066257	     -3.82928719	     -8.65625382	     -0.00423131	      0.00403036	     -0.00078352	    -25.57296371	     -4.16933737	    -14.32658494	     -5.50691508	     18.53793065	      3.96351079	     12.57341645	     14.46932718	     20.65543913	      0.00000000	     34.32000000
      6.54000000	      1.32083799	     -3.67368787	     -8.38047887	     -0.00423131	      0.00403036	     -0.00078352	    -25.60782536	     -3.97070582	    -14.41942188	     -5.36585940	     18.56674628	      3.88195899	      9.42308732	     13.37450351	     27.58634308	      0.00000000	     34.32000000
      6.55000000	      1.08767649	     -3.65833045	     -8.34352421	     -0.00423131	      0.00403036	     -0.00078352	    -25.66173940	     -3.97788824	    -14.62743214	     -5.33027944	     18.38042287	      3.92735692	      8.11552398	     13.06952528	     26.94741279	      0.00000000	     34.32000000
      6.56000000	      1.19823083	     -3.74014298	     -8.58650176	     -0.00423131	      0.00403036	     -0.00078352	    -25.64692562	     -3.90929760	    -14.67584866	     -5.25626150	     18.29187001	      3.92465812	      8.07691840	     12.96135325	     26.94958811	      0.00000000	     34.32000000
      6.57000000	      1.26604770	     -3.52914586	     -8.37323919	     -0.00423131	      0.00403036	     -0.00078352	    -25.69101150	     -3.56223065	    -14.72630562	     -5.04101926	     18.47664444	      3.75374791	      3.97058437	     11.78157361	     33.41919591	      0.00000000	     34.32000000
      6.58000000	      1.28869869	     -3.52664791	     -8.37063980	     -0.00423131	      0.00403036	     -0.00078352	    -25.63639616	     -3.50471716	    -14.67845250	     -4.98264780	     18.42911196	      3.74839341	      1.37069844	     11.25846282	     36.60983645	      0.00000000	     34.32000000
      6.59000000	      1.28440654	     -3.57228826	     -8.39859018	     -0.00423131	      0.00403036	     -0.00078352	    -25.54368999	     -3.56328792	    -14.59369136	     -4.98694392	     18.28765235	      3.80846102	     -0.80709161	     11.00547212	     38.81573620	      0.00000000	     34.32000000
      6.60000000	      1.28965511	     -3.57860557	     -8.59908840	     -0.00423131	      0.00403036	     -0.00078352	    -25.56546432	     -3.80254772	    -14.82111250	     -5.07221294	     17.88445584	      3.99072153	     -0.42409346	     11.68827312	     34.25786375	      0.00000000	     34.32000000
      6.61000000	      1.39537424	     -3.65985014	     -8.73853954	     -0.00423131	      0.00403036	     -0.00078352	    -25.54681638	     -3.78617771	    -14.83113779	     -5.04403448	     17.82431635	      4.00063545	     -0.47554689	     11.61427982	     34.26049612	      0.00000000	     34.32000000
